<svg xmlns="http://www.w3.org/2000/svg" viewBox="0 0 75 75"><defs><clipPath id="a"><path d="M0 0h75v75H0z" style="fill:none"/></clipPath><mask id="b" width="75" height="75" x="0" y="0" maskUnits="userSpaceOnUse"><path d="M75 0H0v75h75Z" data-name="mask0 5366 2879" style="fill:#fff"/></mask></defs><g data-name="Layer 2"><g data-name="Layer 1" style="clip-path:url(#a)"><path d="M74.35.67H.77v73.55h73.58Z" style="fill:#1a1a1a"/><g style="mask:url(#b)"><path d="M0 75h75V0H0Zm63.36-9.44h-9.82V40.21h2v23.4h7.87v2ZM53.15 8.31h1.94v20.84a2.92 2.92 0 1 0 5.84 0V8.31h2v20.84a4.87 4.87 0 1 1-9.74 0V8.31Zm-17.3 0h3.3L43 33.65h-1.94l-1-6.49h-5.14l-1 6.49H32l3.86-25.34Zm0 31.64h3.3L43 65.29h-1.94l-1-6.5h-5.15l-1 6.5H32ZM12 25.43l1.94-.22v3.94a2.93 2.93 0 0 0 5.85.07v-2.51a3.5 3.5 0 0 0-.71-2l-6-7.09A5.42 5.42 0 0 1 12 14.5v-1.69a4.59 4.59 0 0 1 .1-1 4.87 4.87 0 0 1 9.64 1V16l-1.94.23v-3.41a2.93 2.93 0 0 0-5.85 0v1.68a3.11 3.11 0 0 0 .68 1.88l6 7.1a5.49 5.49 0 0 1 1.16 3.23v2.44a4.87 4.87 0 0 1-9.79.45v-4.17Zm0 19.29a4.87 4.87 0 1 1 9.74 0v3.76l-1.95.22v-4a2.92 2.92 0 0 0-5.84 0v16.36a2.92 2.92 0 1 0 5.84.06V57.6h1.95v3.46a4.87 4.87 0 1 1-9.74 0Z" style="fill:#fff"/><path d="M37.54 42.12h-.08l-2.24 14.72h4.53ZM37.54 10.48h-.08L35.22 25.2h4.53Z" style="fill:#fff"/></g></g></g></svg>